<?xml version="1.0" encoding="UTF-8"?>
<svg id="Capa_1" data-name="Capa 1" xmlns="http://www.w3.org/2000/svg" viewBox="0 0 49.8 48.87">
  <defs>
    <style>
      .cls-1 {
        fill: #bf9870;
      }
    </style>
  </defs>
  <path class="cls-1" d="M39.22,38.9l-8.44-8.44-15.74-.04V7.94h29.62v22.93h-5.44v8.02ZM17.04,28.42l14.57.04,5.61,5.61v-5.19h5.44V9.94h-25.62v18.48Z"/>
  <rect class="cls-1" x="20.43" y="13.69" width="18.72" height="2"/>
  <rect class="cls-1" x="20.43" y="18.14" width="18.72" height="2"/>
  <rect class="cls-1" x="20.43" y="22.59" width="14.56" height="2"/>
  <path class="cls-1" d="M8.82,43.03v-6.57h-4.24v-18.32h12.46v10.28l11.07.03v7.65l-12.4.03-6.89,6.89ZM6.58,34.46h4.24v3.74l4.06-4.06,11.23-.03v-3.67l-11.07-.03v-10.27H6.58v14.32Z"/>
</svg>