<?xml version="1.0" encoding="UTF-8"?>
<svg id="Capa_1" fill="white" data-name="Capa 1" xmlns="http://www.w3.org/2000/svg" viewBox="0 0 283.46 305.27">
  <g>
    <polygon points="75.06 214.14 41.46 163.53 28.35 163.53 28.35 229.59 38.92 229.59 38.92 177.93 72.61 229.59 85.53 229.59 85.53 163.53 75.06 163.53 75.06 214.14"/>
    <path d="M146.5,199.21c0-5.35-.9-9.92-2.69-13.73-1.79-3.81-4.62-6.73-8.49-8.78-3.87-2.04-8.79-3.07-14.77-3.07-9.12,0-15.9,2.44-20.34,7.31-4.44,4.88-6.65,12.1-6.65,21.66,0,6.29.91,11.48,2.74,15.57,1.82,4.09,4.77,7.19,8.82,9.3,4.06,2.11,9.3,3.16,15.71,3.16,5.1,0,9.39-.69,12.88-2.08,3.49-1.38,6.29-3.6,8.4-6.65,2.11-3.05,3.51-7,4.2-11.84h-10.38c-.32,2.83-1.02,5.18-2.12,7.03-1.1,1.86-2.71,3.21-4.81,4.06-2.11.85-4.83,1.27-8.16,1.27-3.96,0-7.16-.63-9.58-1.89-2.42-1.26-4.22-3.3-5.38-6.13-1.1-2.68-1.67-6.24-1.73-10.66h42.36v-4.53ZM104.36,196.09c.49-4.11,1.76-7.34,3.83-9.67,2.7-3.05,6.79-4.58,12.27-4.58,3.71,0,6.7.69,8.97,2.08,2.26,1.38,3.9,3.38,4.91,5.99.68,1.75,1.12,3.82,1.34,6.18h-31.31Z"/>
    <polygon points="187.45 229.59 199.72 229.59 182.88 201.21 198.68 174.67 186.7 174.67 173.92 197.42 161.13 174.67 148.86 174.67 164.65 201.45 147.35 229.59 159.52 229.59 173.56 204.98 187.45 229.59"/>
    <path d="M251.96,186.04c-2.11-4.18-5.19-7.3-9.25-9.34-4.06-2.04-9.01-3.07-14.86-3.07s-10.9,1.02-14.96,3.07c-4.06,2.05-7.13,5.16-9.2,9.34-2.08,4.18-3.11,9.52-3.11,16s1.04,11.98,3.11,16.14c2.08,4.15,5.14,7.28,9.2,9.39,4.06,2.11,9.04,3.16,14.96,3.16s10.81-1.05,14.86-3.16c4.06-2.11,7.14-5.24,9.25-9.39,2.11-4.15,3.16-9.53,3.16-16.14s-1.05-11.81-3.16-16ZM241.81,213.93c-1.26,3.02-3.05,5.21-5.38,6.56-2.33,1.35-5.19,2.03-8.59,2.03s-6.28-.67-8.64-2.03c-2.36-1.35-4.17-3.54-5.43-6.56-1.26-3.02-1.89-6.98-1.89-11.89s.63-8.68,1.89-11.7c1.26-3.02,3.05-5.19,5.38-6.51,2.33-1.32,5.22-1.98,8.68-1.98s6.18.66,8.54,1.98c2.36,1.32,4.17,3.48,5.43,6.46,1.26,2.99,1.89,6.9,1.89,11.75s-.63,8.87-1.89,11.89Z"/>
    <path d="M79.97,117.92l23.06,18.73,2.07,1.65,1.94-1.68,33.98-27.74,33.17,27.63,2.01,1.57,24.23-19.86,1.11-.96v-.62s.01,0,.01,0v-39.14s-1.23-.85-1.23-.85l-57.86-46.94-2.1-1.55-24.22,20.56s-.06.04-.09.06l-35.4,27.88c-.76.61-1.2,1.52-1.2,2.5v36.7c0,.7.24,1.36.64,1.91l-.12.15ZM105.02,130.19l-17.46-14.18,36.98-30.27,15.98-12.96,17.47,14.18-52.96,43.24ZM176.17,130.01l-30.21-25.16,16.98-13.86,30.53,24.85-17.3,14.18ZM121.24,52.62l19.31-16.39,54.74,44.41v28.6l-29.25-23.81.02-16.61-.02-1.52-23.52-19.08c-1.18-.96-2.89-.95-4.06.04l-17.22,14.56v-10.21ZM85.72,80.66l29.26-23.05v11.86c0,1.24.73,2.38,1.88,2.9l1.85.8,21.85-18.47,19.24,15.61v10.05s-17.25-13.98-17.25-13.98c-1.19-.98-2.9-.99-4.07-.02l-17.92,14.54-34.85,28.53v-28.75Z"/>
  </g>
  <g>
    <path d="M29.52,258.09h5.58v2.05h-3.88l.99-1.48v17.89l-.99-1.48h3.88v2.05h-5.58v-19.02Z"/>
    <path d="M49.72,261.19h-5.11v-2.24h13.09v2.24h-5.11v14.24h-2.87v-14.24Z"/>
    <path d="M60.5,275.24c-.61-.27-1.07-.66-1.38-1.18-.31-.52-.46-1.13-.46-1.84,0-.75.2-1.39.6-1.92.4-.53,1.05-1.02,1.97-1.49.91-.47,2.2-.98,3.86-1.53l3.77-1.2.02,1.74-3.37,1.08c-1.11.36-1.96.69-2.53.99-.57.3-.97.61-1.2.93s-.34.71-.34,1.16c0,.58.2,1.02.59,1.31.39.29.98.43,1.77.43.93,0,1.74-.23,2.45-.68.71-.45,1.25-1.05,1.62-1.8.38-.75.57-1.53.57-2.36v-2.54c0-.74-.11-1.32-.33-1.75-.22-.43-.56-.75-1.01-.94-.46-.2-1.07-.29-1.84-.29-1.19,0-2.08.3-2.65.89-.57.6-.93,1.61-1.07,3.04h-2.59c.13-1.36.44-2.48.95-3.33.51-.86,1.21-1.49,2.11-1.89.89-.41,2.03-.61,3.41-.61s2.45.18,3.31.54c.86.36,1.48.89,1.87,1.6s.59,1.58.59,2.61v5.08l.16,4.14h-2.66v-5.91l.02-.07c-.13,1.21-.4,2.27-.84,3.2s-1.07,1.66-1.92,2.19c-.85.53-1.91.8-3.18.8-.91,0-1.67-.13-2.28-.4Z"/>
    <path d="M74.95,257.55h2.78v17.89h-2.78v-17.89Z"/>
    <path d="M81.47,257.55h2.78v17.89h-2.78v-17.89Z"/>
    <path d="M90.52,274.9c-1.01-.53-1.75-1.3-2.2-2.32-.46-1.02-.68-2.31-.68-3.88,0-2.38.55-4.19,1.66-5.4s2.8-1.82,5.07-1.82c1.49,0,2.72.26,3.68.77s1.67,1.24,2.12,2.19c.45.95.67,2.09.67,3.43v1.13h-11.18v-1.91h9.27l-.75.92c0-.99-.13-1.81-.38-2.46s-.66-1.15-1.22-1.49c-.56-.35-1.31-.52-2.24-.52-1.37,0-2.39.38-3.06,1.14-.67.76-1.01,1.9-1.01,3.43v.71c0,1.19.15,2.14.44,2.85s.74,1.22,1.34,1.53,1.4.47,2.39.47c.83,0,1.51-.11,2.04-.32.53-.21.93-.55,1.2-1.01s.45-1.05.53-1.75h2.59c-.17,1.21-.52,2.19-1.05,2.95-.53.76-1.22,1.31-2.1,1.66-.87.34-1.94.52-3.21.52-1.6,0-2.91-.26-3.92-.79Z"/>
    <path d="M104.18,261.73h2.4l.17,5.67h.21v8.03h-2.78v-13.7ZM107.15,265.03c.34-1.13.83-1.96,1.45-2.5.62-.53,1.35-.8,2.18-.8h.66v2.38h-1.06c-.71,0-1.32.16-1.84.49-.52.33-.91.88-1.18,1.65s-.4,1.81-.4,3.13h-.33c0-1.77.17-3.22.52-4.35Z"/>
    <path d="M129.22,262.26c.8.53,1.41,1.29,1.82,2.31.42,1.01.62,2.31.62,3.89s-.2,2.96-.6,4.01c-.4,1.06-1.01,1.86-1.84,2.41-.82.55-1.82.82-3,.82s-2.12-.25-2.93-.75c-.81-.5-1.42-1.27-1.84-2.32-.42-1.04-.62-2.37-.62-3.97s.21-2.96.62-4.03c.42-1.07,1.03-1.86,1.84-2.39.81-.53,1.8-.79,2.98-.79s2.14.26,2.94.79ZM124.57,264.7c-.6.82-.91,2.12-.91,3.91s.3,3.06.89,3.87c.6.81,1.53,1.21,2.8,1.21.86,0,1.59-.18,2.19-.55.6-.37,1.04-.92,1.34-1.66.3-.74.45-1.69.45-2.87s-.15-2.17-.46-2.92c-.31-.75-.75-1.31-1.34-1.67s-1.32-.54-2.2-.54c-1.24,0-2.16.41-2.77,1.22ZM131.34,257.55h2.78v17.89h-2.78v-17.89Z"/>
    <path d="M140.39,274.9c-1.01-.53-1.75-1.3-2.2-2.32-.46-1.02-.68-2.31-.68-3.88,0-2.38.55-4.19,1.66-5.4s2.8-1.82,5.07-1.82c1.49,0,2.72.26,3.68.77s1.67,1.24,2.12,2.19c.45.95.67,2.09.67,3.43v1.13h-11.18v-1.91h9.27l-.75.92c0-.99-.13-1.81-.38-2.46s-.66-1.15-1.22-1.49c-.56-.35-1.31-.52-2.24-.52-1.37,0-2.39.38-3.06,1.14-.67.76-1.01,1.9-1.01,3.43v.71c0,1.19.15,2.14.44,2.85s.74,1.22,1.34,1.53,1.4.47,2.39.47c.83,0,1.51-.11,2.04-.32.53-.21.93-.55,1.2-1.01s.45-1.05.53-1.75h2.59c-.17,1.21-.52,2.19-1.05,2.95-.53.76-1.22,1.31-2.1,1.66-.87.34-1.94.52-3.21.52-1.6,0-2.91-.26-3.92-.79Z"/>
    <path d="M164.28,274.81c-1.18-.54-2.07-1.42-2.67-2.64-.6-1.21-.89-2.83-.89-4.84s.3-3.67.89-4.94c.6-1.27,1.48-2.2,2.65-2.79s2.65-.88,4.44-.88,3.19.23,4.3.71c1.11.47,1.93,1.16,2.47,2.07.54.91.86,2.03.95,3.37h-2.94c-.08-1.4-.5-2.42-1.27-3.06-.77-.64-1.92-.96-3.46-.96-1.15,0-2.08.2-2.81.6-.73.4-1.29,1.07-1.67,2.01s-.58,2.23-.58,3.86.18,2.82.55,3.72c.37.89.92,1.54,1.65,1.93.73.39,1.68.59,2.86.59,1.07,0,1.94-.14,2.62-.42.68-.28,1.2-.72,1.56-1.32.36-.6.57-1.38.64-2.35h2.92c-.14,1.49-.51,2.69-1.12,3.59-.6.9-1.44,1.56-2.51,1.97s-2.41.61-4.02.61c-1.85,0-3.37-.27-4.55-.81Z"/>
    <path d="M181.17,275.24c-.61-.27-1.07-.66-1.38-1.18-.31-.52-.46-1.13-.46-1.84,0-.75.2-1.39.6-1.92.4-.53,1.05-1.02,1.97-1.49.91-.47,2.2-.98,3.86-1.53l3.77-1.2.02,1.74-3.37,1.08c-1.11.36-1.96.69-2.53.99-.57.3-.97.61-1.2.93s-.34.71-.34,1.16c0,.58.2,1.02.59,1.31.39.29.98.43,1.77.43.93,0,1.74-.23,2.45-.68.71-.45,1.25-1.05,1.62-1.8.38-.75.57-1.53.57-2.36v-2.54c0-.74-.11-1.32-.33-1.75-.22-.43-.56-.75-1.01-.94-.46-.2-1.07-.29-1.84-.29-1.19,0-2.08.3-2.65.89-.57.6-.93,1.61-1.07,3.04h-2.59c.13-1.36.44-2.48.95-3.33.51-.86,1.21-1.49,2.11-1.89.89-.41,2.03-.61,3.41-.61s2.45.18,3.31.54c.86.36,1.48.89,1.87,1.6s.59,1.58.59,2.61v5.08l.16,4.14h-2.66v-5.91l.02-.07c-.13,1.21-.4,2.27-.84,3.2s-1.07,1.66-1.92,2.19c-.85.53-1.91.8-3.18.8-.91,0-1.67-.13-2.28-.4Z"/>
    <path d="M198.21,275.24c-.86-.31-1.57-.83-2.11-1.55s-.9-1.68-1.07-2.87h2.66c.09.74.28,1.33.55,1.78.27.45.67.77,1.18.95.51.19,1.19.28,2.04.28,1.15,0,1.98-.16,2.52-.49.53-.33.8-.82.8-1.46,0-.47-.17-.85-.51-1.13s-.77-.5-1.28-.65-1.21-.3-2.07-.46c-1.21-.25-2.19-.5-2.93-.75s-1.38-.65-1.92-1.19c-.53-.54-.8-1.29-.8-2.25,0-.77.21-1.45.64-2.05s1.07-1.07,1.94-1.41c.87-.34,1.95-.52,3.24-.52,1.73,0,3.13.36,4.2,1.08s1.72,1.97,1.94,3.74h-2.64c-.11-.72-.3-1.29-.57-1.72-.27-.42-.64-.73-1.12-.93-.48-.2-1.09-.29-1.82-.29-1.07,0-1.84.17-2.32.52-.48.35-.72.81-.72,1.39,0,.41.16.75.47,1.01.31.27.71.47,1.2.61s1.16.29,2.02.45c1.24.23,2.25.48,3.02.74s1.44.67,1.99,1.22c.55.56.82,1.33.82,2.32,0,.86-.22,1.6-.67,2.2s-1.13,1.07-2.05,1.4c-.92.33-2.06.49-3.42.49-1.29,0-2.36-.16-3.22-.47Z"/>
    <path d="M212.38,275.24c-.61-.27-1.07-.66-1.38-1.18-.31-.52-.46-1.13-.46-1.84,0-.75.2-1.39.6-1.92.4-.53,1.05-1.02,1.97-1.49.91-.47,2.2-.98,3.86-1.53l3.77-1.2.02,1.74-3.37,1.08c-1.11.36-1.96.69-2.53.99-.57.3-.97.61-1.2.93s-.34.71-.34,1.16c0,.58.2,1.02.59,1.31.39.29.98.43,1.77.43.93,0,1.74-.23,2.45-.68.71-.45,1.25-1.05,1.62-1.8.38-.75.57-1.53.57-2.36v-2.54c0-.74-.11-1.32-.33-1.75-.22-.43-.56-.75-1.01-.94-.46-.2-1.07-.29-1.84-.29-1.19,0-2.08.3-2.65.89-.57.6-.93,1.61-1.07,3.04h-2.59c.13-1.36.44-2.48.95-3.33.51-.86,1.21-1.49,2.11-1.89.89-.41,2.03-.61,3.41-.61s2.45.18,3.31.54c.86.36,1.48.89,1.87,1.6s.59,1.58.59,2.61v5.08l.16,4.14h-2.66v-5.91l.02-.07c-.13,1.21-.4,2.27-.84,3.2s-1.07,1.66-1.92,2.19c-.85.53-1.91.8-3.18.8-.91,0-1.67-.13-2.28-.4Z"/>
    <path d="M229.42,275.24c-.86-.31-1.57-.83-2.11-1.55s-.9-1.68-1.07-2.87h2.66c.09.74.28,1.33.55,1.78.27.45.67.77,1.18.95.51.19,1.19.28,2.04.28,1.15,0,1.98-.16,2.52-.49.53-.33.8-.82.8-1.46,0-.47-.17-.85-.51-1.13s-.77-.5-1.28-.65-1.21-.3-2.07-.46c-1.21-.25-2.19-.5-2.93-.75s-1.38-.65-1.92-1.19c-.53-.54-.8-1.29-.8-2.25,0-.77.21-1.45.64-2.05s1.07-1.07,1.94-1.41c.87-.34,1.95-.52,3.24-.52,1.73,0,3.13.36,4.2,1.08s1.72,1.97,1.94,3.74h-2.64c-.11-.72-.3-1.29-.57-1.72-.27-.42-.64-.73-1.12-.93-.48-.2-1.09-.29-1.82-.29-1.07,0-1.84.17-2.32.52-.48.35-.72.81-.72,1.39,0,.41.16.75.47,1.01.31.27.71.47,1.2.61s1.16.29,2.02.45c1.24.23,2.25.48,3.02.74s1.44.67,1.99,1.22c.55.56.82,1.33.82,2.32,0,.86-.22,1.6-.67,2.2s-1.13,1.07-2.05,1.4c-.92.33-2.06.49-3.42.49-1.29,0-2.36-.16-3.22-.47Z"/>
    <path d="M253.94,277.1h-5.58v-2.05h3.88l-.99,1.48v-17.89l.99,1.48h-3.88v-2.05h5.58v19.02Z"/>
  </g>
</svg>